<?xml version="1.0" encoding="UTF-8" standalone="no"?>
<!DOCTYPE svg PUBLIC "-//W3C//DTD SVG 1.1//EN" "http://www.w3.org/Graphics/SVG/1.1/DTD/svg11.dtd">
<svg width="100%" height="100%" viewBox="0 0 1920 1000" version="1.1" xmlns="http://www.w3.org/2000/svg" xmlns:xlink="http://www.w3.org/1999/xlink" xml:space="preserve" xmlns:serif="http://www.serif.com/" style="fill-rule:evenodd;clip-rule:evenodd;stroke-linejoin:round;stroke-miterlimit:2;">
    <clipPath id="_clip1">
        <rect x="-82.2" y="543.8" width="2002.3" height="472.9"/>
    </clipPath>
    <g clip-path="url(#_clip1)">
        <path d="M570.2,870.9C699.4,768.6 869.8,733.9 1034.3,725.2C1198.9,716.5 1364.6,730.6 1528.3,711.4C1654.9,696.6 1779.1,661.8 1894.9,608.8C1911.7,601.1 1932.1,593.2 1947.7,603.2C1964.7,614.1 1964.4,638.7 1962,658.8C1954,727.2 1942.3,802.8 1888.7,846C1856.1,872.2 1813.5,881.6 1772.4,889.5C1488,943.9 1197,963.4 907.8,947.4C791.7,940.8 672,927.5 570.2,870.9Z" style="fill:url(#_Linear2);fill-rule:nonzero;"/>
    </g>
    <clipPath id="_clip3">
        <rect x="-82.2" y="543.8" width="2002.3" height="472.9"/>
    </clipPath>
    <g clip-path="url(#_clip3)">
        <path d="M1245.5,845.7C1457.7,823.8 1657.4,719.7 1870.6,716.5C1908,715.9 1947.8,719.3 1978,741.5C2026.3,777 2032.7,845.4 2034.8,905.3C2036.3,947.8 2036,995.3 2006.7,1026.2C1978.1,1056.3 1932,1059.8 1890.5,1060.5C1581.2,1065.9 1272.2,1027.2 963,1035.9C675.4,1044 363.2,1117.7 87.3,1036.3C162,924.8 310.5,835.6 443,813.5C575.5,791.4 711,806.3 844.2,823.4C977.4,840.4 1111.9,859.5 1245.5,845.7Z" style="fill:url(#_Linear4);fill-rule:nonzero;"/>
    </g>
    <defs>
        <linearGradient id="_Linear2" x1="0" y1="0" x2="1" y2="0" gradientUnits="userSpaceOnUse" gradientTransform="matrix(1393.05,0,0,1393.05,570.237,775.595)"><stop offset="0" style="stop-color:rgb(47,87,255);stop-opacity:1"/><stop offset="1" style="stop-color:rgb(125,150,255);stop-opacity:1"/></linearGradient>
        <linearGradient id="_Linear4" x1="0" y1="0" x2="1" y2="0" gradientUnits="userSpaceOnUse" gradientTransform="matrix(1947.99,0,0,1947.99,87.2861,895.384)"><stop offset="0" style="stop-color:rgb(122,148,255);stop-opacity:1"/><stop offset="0.68" style="stop-color:rgb(163,181,255);stop-opacity:1"/><stop offset="1" style="stop-color:rgb(183,197,255);stop-opacity:1"/></linearGradient>
    </defs>
</svg>
